#!OML:ASF F:\VICON\USERDATA\INSTALL\rory3\rory3.ASF
:FULLY-SPECIFIED
:DEGREES
2036
root -4.08717 17.4735 0.946604 -0.946044 5.06878 -0.868212
lowerback 9.40651 4.92059 0.963838
upperback 1.11246 6.664 0.557554
thorax -4.04722 3.28904 -0.80297
lowerneck -20.8936 1.63397 -7.61668
upperneck 31.9896 5.00582 1.39992
head 14.2696 1.45883 2.79057
rclavicle -7.16867e-014 7.55382e-015
rhumerus -29.169 2.46172 -68.9498
rradius 83.4395
rwrist 15.109
rhand -25.4365 16.3548
rfingers 7.12502
rthumb 1.08995 -13.6221
lclavicle -7.16867e-014 7.55382e-015
lhumerus -38.4032 11.3125 49.842
lradius 70.8166
lwrist 14.2864
lhand -19.1083 13.9288
lfingers 7.12502
lthumb 7.20057 43.7863
rfemur -14.5589 -6.21456 23.045
rtibia 38.7567
rfoot -18.8361 -0.377986
rtoes 9.62648
lfemur -29.9077 -3.64887 -11.6573
ltibia 63.7622
lfoot -1.64898 3.43427
ltoes -20.7907
2037
root -4.13334 17.4856 0.932245 -1.21836 5.73199 -1.43091
lowerback 9.73266 5.15373 1.72123
upperback 1.28705 7.05475 0.572666
thorax -3.95081 3.47283 -1.26888
lowerneck -21.1847 1.6422 -7.52493
upperneck 32.1586 5.12491 1.14913
head 14.4179 1.47681 2.70807
rclavicle -3.54582e-014 -5.96354e-016
rhumerus -28.3012 2.60023 -68.7492
rradius 83.8672
rwrist 14.6929
rhand -25.8107 16.2149
rfingers 7.12502
rthumb 0.728535 -13.7636
lclavicle -3.54582e-014 -5.96354e-016
lhumerus -38.0487 12.1036 49.8663
lradius 70.441
lwrist 14.2387
lhand -19.8188 14.1725
lfingers 7.12502
lthumb 6.51473 44.0523
rfemur -14.1199 -6.75898 23.7726
rtibia 38.2275
rfoot -18.6853 -0.636491
rtoes 9.93542
lfemur -31.8133 -4.10087 -10.8279
ltibia 66.1687
lfoot -1.91322 2.92285
ltoes -19.5034
2038
root -4.17815 17.4991 0.923043 -1.36707 6.36067 -1.6061
lowerback 9.9146 5.44964 2.07089
upperback 1.36355 7.4826 0.471933
thorax -3.90117 3.68037 -1.62724
lowerneck -21.1582 1.60174 -7.54688
upperneck 32.3571 5.11656 1.09815
head 14.5049 1.45923 2.69663
rclavicle -8.97264e-014 3.97569e-015
rhumerus -27.5694 2.49331 -68.559
rradius 84.1822
rwrist 14.3524
rhand -26.0999 16.8545
rfingers 7.12502
rthumb 0.44927 -13.1247
lclavicle -8.97264e-014 3.97569e-015
lhumerus -37.7863 12.778 49.8945
lradius 70.1055
lwrist 14.3775
lhand -19.8025 13.9575
lfingers 7.12502
lthumb 6.53051 43.8368
rfemur -13.7559 -7.36649 24.0624
rtibia 37.6852
rfoot -18.467 -0.708338
rtoes 9.87031
lfemur -33.7521 -4.57543 -10.4701
ltibia 68.4661
lfoot -2.01121 2.66258
ltoes -19.0064
2039
root -4.22375 17.5181 0.913707 -1.35109 6.98411 -1.47339
lowerback 9.91332 5.75283 2.04422
upperback 1.42692 7.87365 0.301208
thorax -3.79908 3.8765 -1.82935
lowerneck -21.0403 1.59334 -7.61797
upperneck 32.4817 5.13179 1.12584
head 14.5318 1.46177 2.72488
rclavicle 3.18304e-014 8.05078e-015
rhumerus -26.6436 2.35515 -68.3955
rradius 84.3363
rwrist 13.9363
rhand -26.0457 17.2008
rfingers 7.12502
rthumb 0.50164 -12.7783
lclavicle 3.18304e-014 8.05078e-015
lhumerus -37.7697 13.3231 49.9089
lradius 69.983
lwrist 14.4124
lhand -19.4617 13.7674
lfingers 7.12502
lthumb 6.85944 43.6363
rfemur -13.5257 -7.8548 24.0386
rtibia 37.1438
rfoot -18.2942 -0.819423
rtoes 10.038
lfemur -35.7981 -5.06269 -10.4762
ltibia 70.6381
lfoot -1.73737 2.76497
ltoes -18.9218
2040
root -4.26997 17.542 0.90525 -1.38418 7.66428 -1.30238
lowerback 10.0524 6.03369 1.97245
upperback 1.4497 8.23348 0.116325
thorax -3.82005 4.05459 -2.03666
lowerneck -20.9687 1.56814 -7.64411
upperneck 32.6717 5.13041 1.11093
head 14.6032 1.45314 2.72873
rclavicle 7.66563e-015 2.48481e-015
rhumerus -25.7901 2.29882 -68.2407
rradius 84.4948
rwrist 13.5254
rhand -25.9345 16.9534
rfingers 7.12502
rthumb 0.60903 -13.0255
lclavicle 7.66563e-015 2.48481e-015
lhumerus -37.8544 13.556 49.9435
lradius 69.9068
lwrist 14.5638
lhand -19.2211 13.6321
lfingers 7.12502
lthumb 7.0917 43.4932
rfemur -13.2147 -8.25759 23.9817
rtibia 36.5832
rfoot -18.2151 -1.08148
rtoes 10.9923
lfemur -37.8264 -5.57183 -10.5313
ltibia 72.7042
lfoot -1.38186 2.99817
ltoes -18.834
2041
root -4.31869 17.5693 0.898507 -1.45558 8.33239 -1.08102
lowerback 10.2658 6.33167 1.81988
upperback 1.45461 8.60673 -0.104649
thorax -3.90438 4.23854 -2.25083
lowerneck -20.8558 1.52761 -7.55026
upperneck 32.8605 5.0786 1.03667
head 14.6736 1.43006 2.67813
rclavicle 5.72748e-015 4.32357e-015
rhumerus -25.2543 2.17181 -68.1187
rradius 84.9656
rwrist 13.1779
rhand -25.882 16.709
rfingers 7.12502
rthumb 0.659727 -13.2698
lclavicle 5.72748e-015 4.32357e-015
lhumerus -37.9122 13.6635 49.9175
lradius 69.7418
lwrist 14.6699
lhand -18.9623 13.5056
lfingers 7.12502
lthumb 7.34156 43.3582
rfemur -12.8152 -8.62559 23.89
rtibia 35.9577
rfoot -18.1194 -1.49099
rtoes 11.1795
lfemur -39.8062 -6.01019 -10.6482
ltibia 74.6587
lfoot -1.28326 2.94068
ltoes -19.2528
2042
root -4.36896 17.5982 0.889899 -1.51811 8.79528 -0.888297
lowerback 10.4092 6.68354 1.61657
upperback 1.53942 9.04444 -0.281361
thorax -3.87721 4.45863 -2.38726
lowerneck -20.7339 1.49488 -7.56759
upperneck 32.9459 5.03626 1.05915
head 14.6868 1.41568 2.68384
rclavicle -1.16171e-013 7.37988e-015
rhumerus -24.7598 2.05159 -67.9909
rradius 85.659
rwrist 12.932
rhand -25.7684 16.6464
rfingers 7.12502
rthumb 0.769475 -13.3319
lclavicle -1.16171e-013 7.37988e-015
lhumerus -38.0968 13.8432 49.9339
lradius 69.7337
lwrist 14.7065
lhand -18.7021 13.3457
lfingers 7.12502
lthumb 7.59265 43.1894
rfemur -12.4294 -8.74257 23.852
rtibia 35.2631
rfoot -17.9798 -1.98118
rtoes 11.0176
lfemur -41.7552 -6.23751 -10.7218
ltibia 76.5011
lfoot -1.51703 2.57598
ltoes -19.5267
2043
root -4.41588 17.6326 0.88324 -1.61057 9.13003 -0.738462
lowerback 10.5533 7.06052 1.48727
upperback 1.6667 9.52359 -0.438917
thorax -3.79509 4.70006 -2.54595
lowerneck -20.4759 1.51513 -7.73082
upperneck 32.825 5.03711 1.24812
head 14.5607 1.43642 2.77944
rclavicle -1.25831e-013 1.27346e-014
rhumerus -24.0416 1.98514 -67.8057
rradius 86.1465
rwrist 12.7237
rhand -25.7095 16.8914
rfingers 7.12502
rthumb 0.826313 -13.0867
lclavicle -1.25831e-013 1.27346e-014
lhumerus -38.3616 14.0404 49.97
lradius 69.8381
lwrist 14.6759
lhand -18.3691 13.0621
lfingers 7.12502
lthumb 7.91409 42.8939
rfemur -11.9606 -8.66629 23.8506
rtibia 34.4901
rfoot -17.884 -2.48334
rtoes 11.2516
lfemur -43.5895 -6.41262 -10.7418
ltibia 78.226
lfoot -1.90169 2.1073
ltoes -19.1625
